# xmcd CD database file
#
# Track frame offsets:
#	183
#	16210
#	33205
#	59108
#	73623
#	90265
#	105138
#	117388
#	131158
#	147783
#	166233
#	181120
#
# Disc length: 2657 seconds
#
# Revision: 0
# Processed by: cddbd v1.5.2PL0 Copyright (c) Steve Scherf et al.
# Submitted via: Feurio! 1.65 - http://www.feurio.com
#
DISCID=960a5f0c
DTITLE=Freddie and The Screamers - Freddie and The Screamers
DYEAR=1990
DGENRE=Blues
TTITLE0=Temporary Insanity
TTITLE1=Lightning
TTITLE2=Full Moon On Main Street
TTITLE3=Hot Damn
TTITLE4=Darkness
TTITLE5=They All Look Better In Green
TTITLE6=She's Dangerous
TTITLE7=Meltdown
TTITLE8=1-800 Love
TTITLE9=X-Ray Glasses
TTITLE10=Hearts Of Stone
TTITLE11=Both Sides Of The Fence
EXTD=ARD Appaloosa
EXTT0=
EXTT1=
EXTT2=
EXTT3=
EXTT4=
EXTT5=
EXTT6=
EXTT7=
EXTT8=
EXTT9=
EXTT10=
EXTT11=
PLAYORDER=
